<svg xmlns="http://www.w3.org/2000/svg" width="16" height="16" viewBox="0 0 16 16">
    <g fill="none" fill-rule="evenodd">
        <path fill="#252525" d="M0 0h16v16H0z"/>
        <path fill="#FFF" fill-rule="nonzero" d="M5.906 7.596h1.022c1.596 0 2.296-1.008 2.296-2.31 0-1.358-.756-2.128-2.254-2.128H5.948c-.042 1.414-.042 2.828-.042 4.438zm5.18 4.816l1.232.098V13c-.448.126-.84.182-1.456.182-1.134 0-1.736-.322-1.89-1.274l-.504-2.156c-.238-1.162-.63-1.638-1.792-1.638h-.77c0 1.47 0 2.884.042 4.27l1.358.126V13H2.63v-.49l1.33-.126c.028-1.386.028-2.8.028-4.228V7.47c0-1.4 0-2.814-.028-4.228l-1.33-.126v-.504h4.732c2.394 0 3.738.994 3.738 2.66 0 1.19-.826 2.268-2.87 2.59 1.512.21 2.002.896 2.282 2.198l.574 2.352z"/>
    </g>
</svg>
